<svg width="745" height="183" viewBox="0 0 745 183" fill="none" xmlns="http://www.w3.org/2000/svg">
<g clip-path="url(#clip0)">
<path d="M340.547 164.293L288.651 104.15V164.293H266.726V30.1269H288.651V91.2762L340.748 30.1269H368.306L309.973 97.3107L369.312 164.293H340.547ZM381.381 110.587C381.381 99.9257 383.593 90.4716 388.019 82.2245C392.444 73.9774 398.478 67.5406 406.122 63.1154C413.766 58.4889 422.415 56.0751 431.668 56.0751C440.116 56.0751 447.357 57.6843 453.392 61.1039C459.628 64.3223 464.656 68.3452 468.478 73.1728V57.6843H490.605V164.293H468.478V148.403C464.656 153.431 459.628 157.655 453.191 160.874C446.754 164.293 439.513 165.903 431.266 165.903C422.214 165.903 413.766 163.489 406.122 158.862C398.478 154.035 392.444 147.598 388.019 139.15C383.593 130.903 381.381 121.247 381.381 110.587ZM468.478 110.989C468.478 103.747 466.869 97.3107 463.852 91.8797C460.834 86.4487 457.013 82.4257 451.984 79.6096C447.156 76.7935 441.725 75.3855 436.093 75.3855C430.461 75.3855 425.231 76.7935 420.202 79.6096C415.375 82.2245 411.352 86.4486 408.133 91.6785C405.116 96.9084 403.708 103.345 403.708 110.587C403.708 117.828 405.116 124.265 408.133 129.897C411.151 135.529 415.174 139.753 420.202 142.569C425.231 145.385 430.461 146.793 436.093 146.793C441.725 146.793 446.955 145.385 451.984 142.569C456.811 139.753 460.834 135.529 463.852 130.299C466.869 124.868 468.478 118.431 468.478 110.989ZM615.92 57.8855V164.293H593.995V151.822C590.576 156.247 585.949 159.667 580.317 162.282C574.685 164.696 568.852 165.903 562.616 165.903C554.168 165.903 546.725 164.092 540.087 160.673C533.449 157.253 528.219 152.023 524.398 145.184C520.576 138.345 518.765 130.098 518.765 120.443V57.8855H540.49V117.224C540.49 126.678 542.903 134.121 547.731 139.15C552.558 144.178 558.995 146.592 567.242 146.592C575.489 146.592 581.926 144.178 586.754 139.15C591.581 133.92 593.995 126.678 593.995 117.224V57.8855H615.92ZM667.012 73.374C670.231 67.9429 674.455 63.7188 679.685 60.9027C685.116 57.8855 691.552 56.2763 698.794 56.2763V79.0062H693.162C684.512 79.0062 677.874 81.2188 673.449 85.6441C669.024 90.0693 666.811 97.713 666.811 108.374V164.293H644.886V57.8855H666.811V73.374H667.012ZM730.374 43.8051C726.351 43.8051 723.133 42.397 720.317 39.7821C717.702 37.1671 716.294 33.7476 716.294 29.7246C716.294 25.7016 717.702 22.4832 720.317 19.6671C722.932 16.8511 726.351 15.6442 730.374 15.6442C734.196 15.6442 737.616 17.0522 740.231 19.6671C742.846 22.2821 744.254 25.7016 744.254 29.7246C744.254 33.7476 742.846 36.966 740.231 39.7821C737.415 42.397 734.196 43.8051 730.374 43.8051ZM741.035 57.8855V164.293H719.11V57.8855H741.035Z" fill="white"/>
<path d="M82.6742 143.977C82.6742 143.977 81.2661 143.977 75.6339 143.977C67.588 143.977 56.3236 143.977 50.088 142.972C-14.0786 133.115 3.22025 48.0292 48.0765 48.0292C48.8811 47.8281 49.4846 47.2246 49.4846 46.42C49.4846 11.4201 111.237 -9.49945 130.145 27.512C130.548 28.3166 131.553 28.92 132.559 28.7189C158.306 25.7017 181.036 36.7649 181.036 67.7418C181.036 69.1499 181.841 70.5579 183.048 71.3625C183.249 71.5637 183.45 71.5637 183.651 71.5637C215.835 71.5637 231.726 143.173 162.53 143.173C160.72 143.173 138.191 139.15 124.915 134.926" stroke="white" stroke-width="14.0804"/>
<path d="M100.577 37.9717H112.042C112.847 37.9717 113.45 38.5752 113.45 39.3798V57.0809C113.45 58.0867 114.456 58.6901 115.462 58.2878L133.565 49.4372C134.169 49.0349 134.973 49.4372 135.376 50.0407L140.404 60.2993C140.807 60.9028 140.404 61.7073 139.801 62.1096L114.456 74.3797C114.054 74.5809 113.651 74.9832 113.651 75.5866V96.1039C113.651 97.1096 114.657 97.713 115.663 97.3107L135.577 87.6556C136.18 87.2533 136.985 87.6556 137.387 88.259L142.416 98.5176C142.818 99.1211 142.416 99.9257 141.812 100.328L113.249 114.006V181.592C113.249 182.397 112.646 183 111.841 183H100.376C99.571 183 98.9675 182.397 98.9675 181.592V134.322C98.9675 133.92 98.7664 133.316 98.1629 133.115L70.8066 118.834L77.2434 106.362L96.956 116.621C97.7606 117.023 98.9675 116.42 98.9675 115.414V90.0694C98.9675 89.6671 98.7664 89.0636 98.1629 88.8625L71.8124 75.1843C71.2089 74.782 70.8066 73.9774 71.2089 73.374L76.4388 63.3165C76.8411 62.7131 77.6457 62.3108 78.2492 62.7131L96.7549 72.3683C97.5595 72.7705 98.7664 72.1671 98.7664 71.1613V39.3798C99.1687 38.5752 99.7721 37.9717 100.577 37.9717Z" fill="white"/>
</g>
<defs>
<clipPath id="clip0">
<rect width="745" height="183" fill="white"/>
</clipPath>
</defs>
</svg>
